<?xml version="1.0" encoding="UTF-8"?>
<svg xmlns="http://www.w3.org/2000/svg" baseProfile="tiny" version="1.2" viewBox="0 0 240 240">
  <!-- Generator: Adobe Illustrator 30.2.1, SVG Export Plug-In . SVG Version: 2.1.1 Build 1)  -->
  <g id="Ellipse_2" isolation="isolate">
    <g id="Ellipse_21" data-name="Ellipse_2">
      <circle cx="120" cy="120" r="114.68" fill="#fff"/>
    </g>
  </g>
  <g id="Triangle_1" isolation="isolate">
    <g id="Triangle_11" data-name="Triangle_1">
      <path d="M157.23,198.87l-29.45-16.66c-.29-.17-.65-.17-.95,0l-29.45,16.66c-.86.49-.51,1.8.47,1.8h58.89c.99,0,1.33-1.31.47-1.8Z" fill="#fff" fill-rule="evenodd"/>
      <path d="M156.75,203.17h-58.89c-1.6,0-2.94-1.04-3.35-2.58s.25-3.11,1.64-3.89l29.44-16.66c1.05-.59,2.35-.59,3.4,0l29.45,16.66c1.39.79,2.05,2.35,1.64,3.89s-1.75,2.58-3.35,2.58ZM103.71,198.17h47.19l-23.6-13.35-23.6,13.35Z"/>
    </g>
  </g>
  <g id="Ellipse_1" isolation="isolate">
    <g id="Ellipse_11" data-name="Ellipse_1">
      <path d="M80.05,102.67c-17.79,0-32.27-14.48-32.27-32.27s14.48-32.27,32.27-32.27,32.27,14.48,32.27,32.27-14.48,32.27-32.27,32.27ZM80.05,43.13c-15.04,0-27.27,12.23-27.27,27.27s12.23,27.27,27.27,27.27,27.27-12.23,27.27-27.27-12.23-27.27-27.27-27.27Z"/>
    </g>
  </g>
  <g id="Line_1" isolation="isolate">
    <g id="Line_11" data-name="Line_1">
      <rect x="124.81" y="125.83" width="5.21" height="58.77"/>
    </g>
  </g>
  <g id="Triangle_12" data-name="Triangle_1" isolation="isolate">
    <g id="Triangle_13" data-name="Triangle_1">
      <path d="M173.4,70.44h-92.18c-.81,0-1.26.94-.74,1.57l46.09,55.91c.38.47,1.1.47,1.48,0l46.09-55.91c.52-.63.07-1.57-.74-1.57Z" fill="#fff"/>
      <path d="M127.31,130.77c-1.04,0-2.01-.46-2.67-1.26l-46.09-55.91c-.86-1.04-1.04-2.45-.46-3.68.58-1.22,1.78-1.98,3.13-1.98h92.18c1.35,0,2.55.76,3.13,1.98s.4,2.63-.46,3.68l-46.09,55.91c-.66.8-1.63,1.26-2.67,1.26ZM84.49,72.94l42.82,51.95,42.82-51.95h-85.65Z"/>
    </g>
  </g>
  <g id="Line_2" isolation="isolate">
    <g id="Line_21" data-name="Line_2">
      <rect x="97.28" y="88.92" width="60.69" height="5.21"/>
    </g>
  </g>
  <g id="Line_3" isolation="isolate">
    <g id="Line_31" data-name="Line_3">
      <rect x="123.34" y="62.77" width="67.52" height="2.32" transform="translate(11.24 150.48) rotate(-52.83)"/>
    </g>
  </g>
</svg>